<svg width="234" height="108" viewBox="0 0 234 108" fill="none" xmlns="http://www.w3.org/2000/svg">
<g filter="url(#filter0_d_64_1069)">
<rect x="4" width="226" height="100" rx="7" fill="black"/>
<path d="M57.928 63.344C60.36 63.344 61.576 62.512 61.576 60.848C61.576 60.336 61.464 59.904 61.24 59.552C61.032 59.184 60.744 58.872 60.376 58.616C60.008 58.344 59.584 58.112 59.104 57.92C58.64 57.728 58.144 57.536 57.616 57.344C57.008 57.136 56.432 56.904 55.888 56.648C55.344 56.376 54.872 56.064 54.472 55.712C54.072 55.344 53.752 54.912 53.512 54.416C53.288 53.92 53.176 53.32 53.176 52.616C53.176 51.16 53.672 50.024 54.664 49.208C55.656 48.392 57.024 47.984 58.768 47.984C59.776 47.984 60.688 48.096 61.504 48.32C62.336 48.528 62.944 48.76 63.328 49.016L62.584 50.912C62.248 50.704 61.744 50.504 61.072 50.312C60.416 50.104 59.648 50 58.768 50C58.32 50 57.904 50.048 57.52 50.144C57.136 50.24 56.8 50.384 56.512 50.576C56.224 50.768 55.992 51.016 55.816 51.32C55.656 51.608 55.576 51.952 55.576 52.352C55.576 52.8 55.664 53.176 55.84 53.48C56.016 53.784 56.264 54.056 56.584 54.296C56.904 54.52 57.272 54.728 57.688 54.92C58.12 55.112 58.592 55.304 59.104 55.496C59.824 55.784 60.48 56.072 61.072 56.36C61.68 56.648 62.2 56.992 62.632 57.392C63.08 57.792 63.424 58.272 63.664 58.832C63.904 59.376 64.024 60.04 64.024 60.824C64.024 62.28 63.488 63.4 62.416 64.184C61.36 64.968 59.864 65.36 57.928 65.36C57.272 65.36 56.664 65.312 56.104 65.216C55.56 65.136 55.072 65.04 54.64 64.928C54.208 64.8 53.832 64.672 53.512 64.544C53.208 64.4 52.968 64.28 52.792 64.184L53.488 62.264C53.856 62.472 54.416 62.704 55.168 62.96C55.92 63.216 56.84 63.344 57.928 63.344ZM66.8374 65V48.368H76.9894V50.36H69.1654V55.304H76.1254V57.248H69.1654V63.008H77.5894V65H66.8374ZM91.9484 65C91.5964 64.408 91.1884 63.744 90.7244 63.008C90.2764 62.272 89.7884 61.512 89.2604 60.728C88.7324 59.928 88.1804 59.12 87.6044 58.304C87.0444 57.488 86.4844 56.704 85.9244 55.952C85.3644 55.184 84.8204 54.464 84.2924 53.792C83.7644 53.12 83.2764 52.528 82.8284 52.016V65H80.5484V48.368H82.3964C83.1484 49.168 83.9484 50.104 84.7964 51.176C85.6604 52.232 86.5084 53.328 87.3404 54.464C88.1884 55.584 88.9804 56.688 89.7164 57.776C90.4684 58.864 91.1004 59.832 91.6124 60.68V48.368H93.8924V65H91.9484Z" fill="white"/>
<path d="M130.064 48.368H132.392V65H130.064V48.368ZM136.509 65V48.368H146.541V50.36H138.837V55.376H145.677V57.344H138.837V65H136.509ZM159.408 62.984V65H149.4V48.368H151.728V62.984H159.408ZM161.845 48.368H164.173V65H161.845V48.368ZM178.275 65C178.035 64.52 177.747 63.992 177.411 63.416C177.075 62.824 176.707 62.216 176.307 61.592C175.907 60.952 175.491 60.32 175.059 59.696C174.627 59.056 174.211 58.456 173.811 57.896C173.411 58.456 172.995 59.056 172.563 59.696C172.131 60.32 171.715 60.952 171.315 61.592C170.931 62.216 170.563 62.824 170.211 63.416C169.875 63.992 169.587 64.52 169.347 65H166.779C167.499 63.592 168.331 62.16 169.275 60.704C170.235 59.248 171.251 57.752 172.323 56.216L166.995 48.368H169.683L173.787 54.56L177.843 48.368H180.507L175.275 56.12C176.363 57.672 177.387 59.184 178.347 60.656C179.307 62.128 180.155 63.576 180.891 65H178.275Z" fill="white"/>
<g clip-path="url(#clip0_64_1069)">
<path d="M113.591 34.0605C113.685 34.1001 113.747 34.1626 113.817 34.1758C115.444 34.4804 116.443 35.4968 116.837 37.0429C117.128 38.1839 116.991 39.3316 116.279 40.3385C116.119 40.5636 115.927 40.7656 115.722 41.0019C115.608 41.028 115.523 41.0304 115.409 41.0295C114.568 41.0176 113.755 41.0091 112.949 40.9823C113.16 40.7857 113.386 40.6269 113.564 40.4258C114.332 39.5601 114.616 38.5534 114.41 37.4082C114.198 36.2282 113.539 35.3874 112.456 34.9068C112.043 34.7233 111.576 34.6617 111.141 34.5249C111.348 34.419 111.544 34.327 111.745 34.2478C111.923 34.178 112.106 34.1224 112.287 34.0605C112.712 34.0605 113.137 34.0605 113.591 34.0605Z" fill="#8B8A91"/>
<path d="M102.722 34.5452C103.025 34.4241 103.326 34.301 103.63 34.1833C103.721 34.1483 103.817 34.1287 103.921 34.0814C104.337 34.0607 104.742 34.0607 105.187 34.0818C106.608 34.316 107.562 35.093 108.206 36.3108C108.563 36.9858 108.531 37.7016 108.539 38.4244C108.543 38.8995 108.453 39.3514 108.216 39.7496C107.953 40.192 107.626 40.5971 107.299 41.0213C106.376 41.0155 105.481 41.0069 104.59 40.9793C104.613 40.9365 104.627 40.9074 104.65 40.8899C105.819 39.9954 106.268 38.818 106.047 37.3703C105.856 36.1137 104.618 34.8616 103.365 34.6658C103.149 34.6321 102.936 34.5857 102.722 34.5452Z" fill="#8B8A91"/>
<path d="M113.525 65.0605C113.159 64.8829 113.159 64.5237 113.086 64.2255C112.627 62.3473 112.189 60.4641 111.746 58.5823C111.487 57.4838 111.229 56.385 110.971 55.2864C110.825 54.6662 110.678 54.0462 110.557 53.4012C110.951 53.3771 111.32 53.3779 111.689 53.3787C111.809 53.945 111.919 54.5138 112.051 55.0773C112.448 56.7694 112.853 58.4597 113.256 60.1504C113.552 61.3921 113.867 62.6297 114.137 63.8771C114.205 64.1921 114.444 64.533 114.166 64.8675C114.118 64.925 114.054 64.9691 113.99 65.0399C113.839 65.0605 113.695 65.0605 113.525 65.0605Z" fill="white"/>
<path d="M107.027 53.3787C106.881 54.051 106.742 54.725 106.586 55.3952C106.209 57.0213 105.828 58.6464 105.442 60.2704C105.115 61.6459 104.786 63.0211 104.44 64.3918C104.384 64.6131 104.234 64.8108 104.121 65.04C103.97 65.0606 103.826 65.0606 103.656 65.0606C103.331 64.8802 103.271 64.6077 103.346 64.2937C103.781 62.4535 104.219 60.6137 104.658 58.7743C104.975 57.4494 105.295 56.1256 105.612 54.8008C105.721 54.3438 105.823 53.8852 105.954 53.4019C106.329 53.3772 106.678 53.3779 107.027 53.3787Z" fill="white"/>
<path d="M107.299 41.0209C108.275 41.0195 109.221 41.0209 110.225 41.022C111.168 41.0146 112.055 41.0075 112.942 41.0004C113.755 41.0089 114.568 41.0174 115.409 41.0569C115.436 45.1801 115.437 49.2724 115.437 53.3647C114.206 53.3682 112.975 53.3717 111.717 53.3769C111.32 53.3778 110.951 53.377 110.553 53.3774C109.377 53.3774 108.23 53.3763 107.055 53.3768C106.678 53.3777 106.329 53.377 105.951 53.3774C104.068 53.3773 102.214 53.3601 100.36 53.3853C99.8519 53.3922 99.693 53.086 99.6933 52.6988C99.6937 52.2454 99.6934 51.7919 99.6934 51.3384C99.6934 48.1239 99.6958 44.9094 99.6907 41.6948C99.6899 41.2402 99.8897 40.9768 100.362 41.0151C100.823 41.0524 101.289 41.0226 101.809 41.022C102.772 41.0138 103.679 41.0059 104.586 40.998C105.481 41.0066 106.376 41.0151 107.299 41.0209Z" fill="white"/>
<path d="M115.465 53.3696C115.437 49.2728 115.437 45.1805 115.437 41.0606C115.523 41.0306 115.608 41.0282 115.718 41.0221C116.297 41.0202 116.851 41.0487 117.403 41.0154C117.864 40.9875 118.035 41.2982 118.037 41.6679C118.041 42.4626 118.039 43.2574 118.033 44.1071C118.02 44.2114 118.007 44.2609 118.007 44.3104C118.003 46.236 118 48.1617 118 50.0873C118 50.175 118.031 50.2628 118.047 50.3505C118.044 51.1231 118.041 51.8957 118.038 52.6684C118.036 53.1919 117.853 53.3751 117.329 53.3751C116.717 53.375 116.105 53.3745 115.465 53.3696Z" fill="white"/>
<path d="M120.956 43.0346C121.513 42.8144 122.063 42.5773 122.627 42.3793C123.069 42.2241 123.42 42.5358 123.421 43.0518C123.422 45.1203 123.421 47.1888 123.421 49.2573C123.421 49.9737 123.423 50.6901 123.421 51.4065C123.419 52.0243 123.065 52.2568 122.498 52.0285C121.999 51.8279 121.495 51.6399 120.974 51.4078C120.955 48.5911 120.956 45.8129 120.956 43.0346Z" fill="#8A8990"/>
<path d="M120.933 43.0317C120.956 45.813 120.955 48.5913 120.955 51.3968C120.318 51.1913 119.679 50.961 119.042 50.7248C118.723 50.6064 118.408 50.4771 118.069 50.3515C118.03 50.2624 118 50.1747 118 50.087C118 48.1614 118.003 46.2357 118.006 44.3101C118.007 44.2606 118.02 44.2111 118.036 44.1347C119.001 43.7481 119.956 43.3884 120.933 43.0317Z" fill="#C7C6CC"/>
<path d="M104.59 40.9793C103.679 41.0063 102.772 41.0142 101.836 41.0183C101.243 40.3648 100.769 39.6663 100.635 38.79C100.453 37.5993 100.678 36.5107 101.439 35.5518C101.779 35.1237 102.167 34.7618 102.699 34.5454C102.936 34.5858 103.149 34.6321 103.365 34.6658C104.618 34.8617 105.856 36.1137 106.047 37.3704C106.268 38.818 105.819 39.9954 104.65 40.8899C104.627 40.9074 104.613 40.9365 104.59 40.9793Z" fill="#C7C6CC"/>
<path d="M112.949 40.9823C112.055 41.0078 111.168 41.0149 110.252 41.0182C109.648 40.4339 109.238 39.7598 109.044 38.9588C108.647 37.3177 109.417 35.4768 110.864 34.6234C110.931 34.5839 111.013 34.5694 111.11 34.5439C111.576 34.6617 112.043 34.7234 112.456 34.9069C113.539 35.3874 114.198 36.2283 114.41 37.4083C114.616 38.5534 114.332 39.5602 113.564 40.4259C113.386 40.627 113.16 40.7858 112.949 40.9823Z" fill="#C7C6CC"/>
</g>
</g>
<defs>
<filter id="filter0_d_64_1069" x="0" y="0" width="234" height="108" filterUnits="userSpaceOnUse" color-interpolation-filters="sRGB">
<feFlood flood-opacity="0" result="BackgroundImageFix"/>
<feColorMatrix in="SourceAlpha" type="matrix" values="0 0 0 0 0 0 0 0 0 0 0 0 0 0 0 0 0 0 127 0" result="hardAlpha"/>
<feOffset dy="4"/>
<feGaussianBlur stdDeviation="2"/>
<feComposite in2="hardAlpha" operator="out"/>
<feColorMatrix type="matrix" values="0 0 0 0 0 0 0 0 0 0 0 0 0 0 0 0 0 0 0.25 0"/>
<feBlend mode="normal" in2="BackgroundImageFix" result="effect1_dropShadow_64_1069"/>
<feBlend mode="normal" in="SourceGraphic" in2="effect1_dropShadow_64_1069" result="shape"/>
</filter>
<clipPath id="clip0_64_1069">
<rect width="31" height="31" fill="white" transform="translate(96 34)"/>
</clipPath>
</defs>
</svg>
