<svg width="130" height="32" viewBox="0 0 130 32" fill="none" xmlns="http://www.w3.org/2000/svg">
<path d="M5.928 29.344C8.36 29.344 9.576 28.512 9.576 26.848C9.576 26.336 9.464 25.904 9.24 25.552C9.032 25.184 8.744 24.872 8.376 24.616C8.008 24.344 7.584 24.112 7.104 23.92C6.64 23.728 6.144 23.536 5.616 23.344C5.008 23.136 4.432 22.904 3.888 22.648C3.344 22.376 2.872 22.064 2.472 21.712C2.072 21.344 1.752 20.912 1.512 20.416C1.288 19.92 1.176 19.32 1.176 18.616C1.176 17.16 1.672 16.024 2.664 15.208C3.656 14.392 5.024 13.984 6.768 13.984C7.776 13.984 8.688 14.096 9.504 14.32C10.336 14.528 10.944 14.76 11.328 15.016L10.584 16.912C10.248 16.704 9.744 16.504 9.072 16.312C8.416 16.104 7.648 16 6.768 16C6.32 16 5.904 16.048 5.52 16.144C5.136 16.24 4.8 16.384 4.512 16.576C4.224 16.768 3.992 17.016 3.816 17.32C3.656 17.608 3.576 17.952 3.576 18.352C3.576 18.8 3.664 19.176 3.84 19.48C4.016 19.784 4.264 20.056 4.584 20.296C4.904 20.52 5.272 20.728 5.688 20.92C6.12 21.112 6.592 21.304 7.104 21.496C7.824 21.784 8.48 22.072 9.072 22.36C9.68 22.648 10.2 22.992 10.632 23.392C11.08 23.792 11.424 24.272 11.664 24.832C11.904 25.376 12.024 26.04 12.024 26.824C12.024 28.28 11.488 29.4 10.416 30.184C9.36 30.968 7.864 31.36 5.928 31.36C5.272 31.36 4.664 31.312 4.104 31.216C3.56 31.136 3.072 31.04 2.64 30.928C2.208 30.8 1.832 30.672 1.512 30.544C1.208 30.4 0.968 30.28 0.792 30.184L1.488 28.264C1.856 28.472 2.416 28.704 3.168 28.96C3.92 29.216 4.84 29.344 5.928 29.344ZM14.8374 31V14.368H24.9894V16.36H17.1654V21.304H24.1254V23.248H17.1654V29.008H25.5894V31H14.8374ZM39.9484 31C39.5964 30.408 39.1884 29.744 38.7244 29.008C38.2764 28.272 37.7884 27.512 37.2604 26.728C36.7324 25.928 36.1804 25.12 35.6044 24.304C35.0444 23.488 34.4844 22.704 33.9244 21.952C33.3644 21.184 32.8204 20.464 32.2924 19.792C31.7644 19.12 31.2764 18.528 30.8284 18.016V31H28.5484V14.368H30.3964C31.1484 15.168 31.9484 16.104 32.7964 17.176C33.6604 18.232 34.5084 19.328 35.3404 20.464C36.1884 21.584 36.9804 22.688 37.7164 23.776C38.4684 24.864 39.1004 25.832 39.6124 26.68V14.368H41.8924V31H39.9484Z" fill="white"/>
<path d="M78.064 14.368H80.392V31H78.064V14.368ZM84.5093 31V14.368H94.5413V16.36H86.8373V21.376H93.6773V23.344H86.8373V31H84.5093ZM107.408 28.984V31H97.3999V14.368H99.7279V28.984H107.408ZM109.845 14.368H112.173V31H109.845V14.368ZM126.275 31C126.035 30.52 125.747 29.992 125.411 29.416C125.075 28.824 124.707 28.216 124.307 27.592C123.907 26.952 123.491 26.32 123.059 25.696C122.627 25.056 122.211 24.456 121.811 23.896C121.411 24.456 120.995 25.056 120.563 25.696C120.131 26.32 119.715 26.952 119.315 27.592C118.931 28.216 118.563 28.824 118.211 29.416C117.875 29.992 117.587 30.52 117.347 31H114.779C115.499 29.592 116.331 28.16 117.275 26.704C118.235 25.248 119.251 23.752 120.323 22.216L114.995 14.368H117.683L121.787 20.56L125.843 14.368H128.507L123.275 22.12C124.363 23.672 125.387 25.184 126.347 26.656C127.307 28.128 128.155 29.576 128.891 31H126.275Z" fill="white"/>
<g clip-path="url(#clip0_65_1087)">
<path d="M61.5907 0.0605469C61.685 0.100093 61.7466 0.162553 61.8174 0.175823C63.4437 0.480436 64.4431 1.49676 64.8373 3.04287C65.1282 4.18391 64.9911 5.33158 64.2787 6.33851C64.1194 6.56363 63.9275 6.76561 63.7215 7.00188C63.6076 7.02796 63.5227 7.03039 63.4094 7.02945C62.5681 7.01758 61.7551 7.00909 60.9488 6.98226C61.1596 6.78569 61.3857 6.62692 61.564 6.42585C62.332 5.56011 62.6163 4.55336 62.4104 3.4082C62.1982 2.22825 61.5389 1.38737 60.4563 0.906787C60.043 0.723304 59.5756 0.661664 59.1414 0.524922C59.3481 0.418955 59.5442 0.326967 59.7453 0.247848C59.9229 0.177962 60.1062 0.122421 60.287 0.0605469C60.7121 0.0605469 61.1372 0.0605469 61.5907 0.0605469Z" fill="#8B8A91"/>
<path d="M50.7219 0.545191C51.0245 0.424132 51.3263 0.300962 51.6302 0.18331C51.7207 0.148255 51.8173 0.128672 51.9214 0.0813521C52.3366 0.060704 52.7415 0.060704 53.1868 0.0817706C54.6077 0.316023 55.5617 1.09301 56.2061 2.31076C56.5632 2.98577 56.5312 3.70157 56.5385 4.42445C56.5434 4.89949 56.4528 5.35136 56.2158 5.74959C55.9525 6.19203 55.6265 6.59713 55.2991 7.02125C54.3755 7.01547 53.4806 7.00692 52.5904 6.97926C52.6133 6.93647 52.6274 6.90738 52.6503 6.88986C53.8186 5.99535 54.2679 4.81798 54.0475 3.37031C53.8562 2.11368 52.6178 0.86165 51.3648 0.665752C51.1495 0.632088 50.9362 0.585701 50.7219 0.545191Z" fill="#8B8A91"/>
<path d="M61.525 31.0605C61.1595 30.8829 61.1585 30.5237 61.0857 30.2255C60.6271 28.3473 60.1895 26.4641 59.7457 24.5823C59.4866 23.4838 59.2291 22.385 58.9706 21.2864C58.8247 20.6662 58.678 20.0462 58.5566 19.4012C58.9508 19.3771 59.32 19.3779 59.6891 19.3787C59.8091 19.945 59.9187 20.5138 60.0508 21.0773C60.4478 22.7694 60.8528 24.4597 61.2561 26.1504C61.5523 27.3921 61.8672 28.6297 62.1366 29.8771C62.2047 30.1921 62.4436 30.533 62.1656 30.8675C62.1177 30.925 62.0536 30.9691 61.9898 31.0399C61.839 31.0605 61.6955 31.0605 61.525 31.0605Z" fill="white"/>
<path d="M55.027 19.3787C54.8806 20.051 54.7417 20.725 54.5863 21.3952C54.2092 23.0213 53.8277 24.6464 53.4416 26.2704C53.1147 27.6459 52.7858 29.0211 52.4398 30.3918C52.3839 30.6131 52.2342 30.8108 52.1206 31.04C51.9699 31.0606 51.8263 31.0606 51.6559 31.0606C51.3309 30.8802 51.2714 30.6077 51.3457 30.2937C51.7814 28.4535 52.2193 26.6137 52.6584 24.7743C52.9747 23.4494 53.2952 22.1256 53.6116 20.8008C53.7207 20.3438 53.8231 19.8852 53.9543 19.4019C54.329 19.3772 54.678 19.3779 55.027 19.3787Z" fill="white"/>
<path d="M55.2991 7.02093C56.2746 7.01953 57.2214 7.0209 58.2245 7.022C59.168 7.01463 60.0551 7.00752 60.9422 7.00042C61.7552 7.00892 62.5682 7.01742 63.4088 7.05689C63.4365 11.1801 63.4365 15.2724 63.4366 19.3647C62.206 19.3682 60.9754 19.3717 59.7169 19.3769C59.3199 19.3778 58.9507 19.377 58.5527 19.3774C57.3768 19.3774 56.2297 19.3763 55.0548 19.3768C54.6779 19.3777 54.3289 19.377 53.9511 19.3774C52.0682 19.3773 50.2139 19.3601 48.3601 19.3853C47.8519 19.3922 47.693 19.086 47.6933 18.6988C47.6937 18.2454 47.6934 17.7919 47.6934 17.3384C47.6934 14.1239 47.6958 10.9094 47.6907 7.69484C47.6899 7.24022 47.8897 6.97678 48.3623 7.01509C48.8228 7.05241 49.2887 7.0226 49.8085 7.02199C50.7717 7.01382 51.6787 7.00593 52.5856 6.99805C53.4806 7.0066 54.3755 7.01515 55.2991 7.02093Z" fill="white"/>
<path d="M63.4647 19.3696C63.4366 15.2728 63.4365 11.1805 63.4372 7.06063C63.5229 7.0306 63.6078 7.02817 63.718 7.02208C64.2965 7.02017 64.8514 7.04869 65.4025 7.01541C65.8644 6.98753 66.0348 7.29819 66.0368 7.66786C66.041 8.46262 66.0386 9.25742 66.0329 10.1071C66.0198 10.2114 66.0067 10.2609 66.0066 10.3104C66.003 12.236 66 14.1617 66.0002 16.0873C66.0002 16.175 66.0306 16.2628 66.0468 16.3505C66.0439 17.1231 66.0407 17.8957 66.0381 18.6684C66.0363 19.1919 65.8531 19.3751 65.3294 19.3751C64.7171 19.375 64.1049 19.3745 63.4647 19.3696Z" fill="white"/>
<path d="M68.9565 9.03459C69.5125 8.81438 70.0627 8.57734 70.6266 8.37935C71.0686 8.22415 71.4204 8.53584 71.4207 9.05181C71.4221 11.1203 71.4213 13.1888 71.4213 15.2573C71.4213 15.9737 71.4232 16.6901 71.4207 17.4065C71.4186 18.0243 71.0652 18.2568 70.4977 18.0285C69.9992 17.8279 69.4955 17.6399 68.9738 17.4078C68.9545 14.5911 68.9555 11.8129 68.9565 9.03459Z" fill="#8A8990"/>
<path d="M68.9334 9.03174C68.9555 11.813 68.9545 14.5913 68.9551 17.3968C68.3183 17.1913 67.6791 16.961 67.0422 16.7248C66.7228 16.6064 66.4075 16.4771 66.0685 16.3515C66.0304 16.2624 66 16.1747 66 16.087C65.9998 14.1614 66.0028 12.2357 66.0064 10.3101C66.0065 10.2606 66.0197 10.2111 66.0365 10.1347C67.0009 9.74809 67.9556 9.38842 68.9334 9.03174Z" fill="#C7C6CC"/>
<path d="M52.5903 6.97932C51.6786 7.00632 50.7716 7.0142 49.8362 7.01833C49.2428 6.36481 48.7692 5.66632 48.6351 4.78996C48.453 3.59926 48.6784 2.51068 49.4392 1.55181C49.7789 1.12373 50.1672 0.761794 50.6993 0.54541C50.9361 0.585758 51.1494 0.632145 51.3647 0.665809C52.6177 0.861707 53.8561 2.11374 54.0474 3.37037C54.2678 4.81803 53.8185 5.99541 52.6502 6.88992C52.6273 6.90744 52.6132 6.93653 52.5903 6.97932Z" fill="#C7C6CC"/>
<path d="M60.9488 6.98233C60.0549 7.00777 59.1678 7.01487 58.2522 7.01821C57.6482 6.43387 57.2378 5.75981 57.044 4.95879C56.6471 3.31772 57.4168 1.4768 58.8643 0.623358C58.9313 0.583864 59.0131 0.569424 59.1104 0.543945C59.5756 0.661741 60.043 0.723381 60.4563 0.906864C61.5389 1.38744 62.1982 2.22833 62.4104 3.40828C62.6163 4.55343 62.332 5.56019 61.564 6.42593C61.3856 6.627 61.1596 6.78577 60.9488 6.98233Z" fill="#C7C6CC"/>
</g>
<defs>
<clipPath id="clip0_65_1087">
<rect width="31" height="31" fill="white" transform="translate(44)"/>
</clipPath>
</defs>
</svg>
